<svg id="visual" viewBox="0 0 900 600" width="900" height="600" xmlns="http://www.w3.org/2000/svg" xmlns:xlink="http://www.w3.org/1999/xlink" version="1.1"><rect width="900" height="600" fill="#FFFFFF"></rect><g><g transform="translate(725 330)"><path d="M0 -83L71.9 41.5L-71.9 41.5Z" fill="none" stroke="#387A3D" stroke-width="2"></path></g><g transform="translate(336 496)"><path d="M0 -77L66.7 38.5L-66.7 38.5Z" fill="none" stroke="#387A3D" stroke-width="2"></path></g><g transform="translate(367 278)"><path d="M0 -70L60.6 35L-60.6 35Z" fill="none" stroke="#387A3D" stroke-width="2"></path></g><g transform="translate(349 113)"><path d="M0 -80L69.3 40L-69.3 40Z" fill="none" stroke="#387A3D" stroke-width="2"></path></g><g transform="translate(816 478)"><path d="M0 -65L56.3 32.5L-56.3 32.5Z" fill="none" stroke="#387A3D" stroke-width="2"></path></g><g transform="translate(806 139)"><path d="M0 -71L61.5 35.5L-61.5 35.5Z" fill="none" stroke="#387A3D" stroke-width="2"></path></g><g transform="translate(103 289)"><path d="M0 -75L65 37.5L-65 37.5Z" fill="none" stroke="#387A3D" stroke-width="2"></path></g><g transform="translate(539 412)"><path d="M0 -67L58 33.5L-58 33.5Z" fill="none" stroke="#387A3D" stroke-width="2"></path></g><g transform="translate(135 514)"><path d="M0 -70L60.6 35L-60.6 35Z" fill="none" stroke="#387A3D" stroke-width="2"></path></g><g transform="translate(552 85)"><path d="M0 -77L66.7 38.5L-66.7 38.5Z" fill="none" stroke="#387A3D" stroke-width="2"></path></g><g transform="translate(86 93)"><path d="M0 -74L64.1 37L-64.1 37Z" fill="none" stroke="#387A3D" stroke-width="2"></path></g></g></svg>